<svg version="1" xmlns="http://www.w3.org/2000/svg" width="2133.333" height="2133.333" viewBox="0 0 1600.000000 1600.000000"><path d="M257.5 401.7c-25.1 5.3-45.7 23.4-54.1 47.5l-2.9 8.3-.3 295.5c-.3 331.9-.9 303.8 7.3 320.5 10.2 20.6 29.9 35 53.5 39.1 7.4 1.2 29.6 1.4 160.6 1.2l151.9-.3 7.5-2.3c21.3-6.6 36.9-19.1 45.7-36.7 1.7-3.3 21.6-48.3 44.3-100 22.7-51.7 42.6-96.7 44.2-100 14.5-29 44.5-48.2 78.4-50.2 38-2.2 73.9 18.2 90.4 51.6 2.1 4.2 22.1 49.7 44.5 101.1 22.4 51.4 42.1 96.2 43.8 99.5 4 7.6 18.2 22 26.2 26.6 5.9 3.4 13.1 6.5 21 9.1 3.2 1 35.6 1.3 155.9 1.6 133.4.2 153.1.1 160.9-1.3 16.9-2.9 30.2-9.7 41.8-21.5 6.1-6.1 8.6-9.7 12.3-17.1 8.2-16.7 7.6 11.5 7.6-316.9 0-328.2.6-300.2-7.5-316.8-10.2-20.5-30.9-35.2-55.5-39.1-4.5-.8-170.4-1.1-538.5-1-467.8.1-532.8.2-539 1.6zm292.4 239.9c31.5 4.6 62 21.5 80.8 44.9 11 13.7 17.1 25.4 22 42.5 3.1 10.7 4.2 32.9 2.3 44.7-7.9 49.5-49.7 88.8-103.9 97.8-13.5 2.3-38.5 1.6-51.1-1.3-26.7-6.3-48.4-18.4-66.6-37.4-9.6-10.1-15-17.8-21-30.1-11.3-23.6-13.5-52.3-5.7-77.2 11.3-36.3 41.1-65.5 79.8-78.4 20.5-6.8 41.8-8.7 63.4-5.5zm539 0c51.8 7.6 94.4 45.7 104.3 93.4 2.6 12.2 2.7 31.2.3 42.5-4.9 23.2-14.5 40.7-32 58.2-17.4 17.3-38.1 28.6-63.5 34.5-12.6 2.9-37.6 3.6-51.1 1.3-50.1-8.3-90.6-43-102.6-88-2.3-8.9-2.6-11.8-2.6-26.5 0-14.6.3-17.6 2.6-26.3 16.1-60.1 78.7-98.8 144.6-89.1z"/></svg>